# xmcd
#
# Track frame offsets:
#	150
#	20145
#	30465
#	43987
#	56222
#	66372
#	81047
#	94730
#	106987
#	121842
#	135767
#	146930
#	161755
#	174145
#
# Disc length: 2518 seconds
#
# Revision: 1
# Processed by: cddbd v1.5.2PL0 Copyright (c) Steve Scherf et al.
# Submitted via: audiograbber 1.83.01
#
DISCID=be09d40e
DTITLE=Tom Astor - Six Days On The Road
DYEAR=1900
DGENRE=Country
TTITLE0=Der Feigling des Jahrhunderts
TTITLE1=Einmal im Jahr
TTITLE2=Six Days On The Road
TTITLE3=Radwechsel
TTITLE4=Übermüdung tötet
TTITLE5=Sie ist jung, und ich ein Mann, der viel erlebt
TTITLE6=Rollende Giganten
TTITLE7=Kopf hoch Mann
TTITLE8=Das schöne Mädchen von der Autobahn
TTITLE9=Fuzzy, das war der Größte
TTITLE10=Panamerican Highway
TTITLE11=Truckers Glück
TTITLE12=Ich bin wieder auf der Autobahn
TTITLE13=Und dann träumt man von Las Vegas
EXTD=
EXTT0=
EXTT1=
EXTT2=
EXTT3=
EXTT4=
EXTT5=
EXTT6=
EXTT7=
EXTT8=
EXTT9=
EXTT10=
EXTT11=
EXTT12=
EXTT13=
PLAYORDER=
